<?xml version="1.0" encoding="UTF-8" standalone="no"?>
<!-- Created with Inkscape (http://www.inkscape.org/) -->
<!-- $Id$ -->
<svg
   xmlns:dc="http://purl.org/dc/elements/1.1/"
   xmlns:cc="http://web.resource.org/cc/"
   xmlns:rdf="http://www.w3.org/1999/02/22-rdf-syntax-ns#"
   xmlns:svg="http://www.w3.org/2000/svg"
   xmlns="http://www.w3.org/2000/svg"
   xmlns:xlink="http://www.w3.org/1999/xlink"
   xmlns:sodipodi="http://sodipodi.sourceforge.net/DTD/sodipodi-0.dtd"
   xmlns:inkscape="http://www.inkscape.org/namespaces/inkscape"
   width="2673"
   height="482.98999"
   id="svg2"
   sodipodi:version="0.32"
   inkscape:version="0.45"
   sodipodi:docbase="/home/aviram/src/plasma/img"
   sodipodi:docname="soleil.svg"
   inkscape:output_extension="org.inkscape.output.svg.inkscape"
   version="1.0"
   sodipodi:modified="true">
  <sodipodi:namedview
     id="base"
     pagecolor="#ffffff"
     bordercolor="#666666"
     borderopacity="1.0"
     gridtolerance="10000"
     guidetolerance="10"
     objecttolerance="10"
     inkscape:pageopacity="0.0"
     inkscape:pageshadow="2"
     inkscape:zoom="0.35091657"
     inkscape:cx="1336.5"
     inkscape:cy="241.495"
     inkscape:document-units="px"
     inkscape:current-layer="layer1"
     inkscape:window-width="1024"
     inkscape:window-height="702"
     inkscape:window-x="0"
     inkscape:window-y="0"
     showguides="true"
     inkscape:guide-bbox="true"
     width="2673px"
     height="482.99px"
     showgrid="false"
     gridempspacing="1" />
  <metadata
     id="metadata7">
    <rdf:RDF>
      <cc:Work
         rdf:about="">
        <dc:format>image/svg+xml</dc:format>
        <dc:type
           rdf:resource="http://purl.org/dc/dcmitype/StillImage" />
      </cc:Work>
    </rdf:RDF>
  </metadata>
  <defs
     id="defs">
    <linearGradient
       id="gradientOrange"
       y1="1"
       gradientUnits="userSpaceOnUse">
      <stop
         style="stop-color:#fe9d08;stop-opacity:1"
         offset="0"
         id="stop5242" />
      <stop
         style="stop-color:#f5dd97;stop-opacity:1;"
         offset="1"
         id="stop5244" />
    </linearGradient>
    <linearGradient
       gradientUnits="userSpaceOnUse"
       y1="1"
       id="gradientBlue">
      <stop
         id="stop2170"
         offset="0"
         style="stop-color:#5ab1f1;stop-opacity:1" />
      <stop
         id="stop2172"
         offset="1"
         style="stop-color:#addfff;stop-opacity:1" />
    </linearGradient>
    <linearGradient
       xlink:href="#gradientOrange"
       id="gradientOrangeBig"
       gradientUnits="userSpaceOnUse"
       y1="146" />
    <linearGradient
       y1="40"
       gradientUnits="userSpaceOnUse"
       id="gradientOrangeSmall"
       xlink:href="#gradientOrange" />
    <linearGradient
       y1="146"
       gradientUnits="userSpaceOnUse"
       id="gradientBlueBig"
       xlink:href="#gradientBlue" />
    <linearGradient
       xlink:href="#gradientBlue"
       id="gradientBlueSmall"
       gradientUnits="userSpaceOnUse"
       y1="40"
       x1="0"
       x2="0" />
    <clipPath
       clipPathUnits="userSpaceOnUse"
       id="bannerStarClipperBig">
      <rect
         id="rect8082"
         width="430"
         height="177"
         x="0"
         y="0" />
    </clipPath>
    <clipPath
       id="bannerBackgroundClipperBig"
       clipPathUnits="userSpaceOnUse">
      <rect
         y="0"
         x="430"
         height="177"
         width="2300"
         id="rect8091" />
    </clipPath>
    <clipPath
       id="bannerStartClipperSmall"
       clipPathUnits="userSpaceOnUse">
      <rect
         y="0"
         x="0"
         height="53"
         width="170"
         id="rect2228" />
    </clipPath>
    <clipPath
       clipPathUnits="userSpaceOnUse"
       id="bannerBackgroundClipperSmall">
      <rect
         id="rect2232"
         width="2450"
         height="55"
         x="170"
         y="0" />
    </clipPath>
    <g
       id="bannerBig">
      <rect
         style="opacity:1;fill:url(#gradientOrangeBig);stroke:#ec9521;stroke-width:1"
         id="rectOrange"
         width="315"
         height="146"
         x="0.5"
         y="0.5" />
      <rect
         x="319.5"
         height="146"
         width="2300"
         id="rectBlue"
         style="fill:url(#gradientBlueBig);stroke:#72a6bc;stroke-width:1"
         y="0.5" />
      <rect
         y="150.5"
         x="0.5"
         height="26"
         width="2619"
         id="rectGreen1"
         style="fill:#aee66b;stroke:#afcf83;stroke-width:1" />
      <g
         id="starTranslateWraper"
         transform="translate(317.5,75.5)">
        <g
           id="starScaleWraper"
           transform="scale(0.9,0.9)">
          <path
             sodipodi:type="star"
             style="opacity:1;fill:#ffffff;fill-opacity:0.41530056;stroke:none;stroke-width:1;stroke-linecap:round;stroke-linejoin:miter;stroke-miterlimit:4;stroke-dasharray:none;stroke-opacity:1"
             id="star"
             sodipodi:sides="10"
             sodipodi:r1="100"
             inkscape:flatsided="false"
             inkscape:rounded="0"
             inkscape:randomized="0"
             d="M 95.105651,-30.9017 L 52.573109,0 L 95.105652,30.901699 L 42.532538,30.901698 L 58.778526,80.901699 L 16.245984,49.999998 L 4.6410207e-07,100 L -16.245984,49.999998 L -58.778525,80.9017 L -42.532538,30.901698 L -95.105651,30.9017 L -52.573109,6.4381363e-15 L -95.105652,-30.901699 L -42.532538,-30.901698 L -58.778526,-80.901699 L -16.245984,-49.999998 L -4.6410211e-07,-100 L 16.245984,-49.999998 L 58.778525,-80.9017 L 42.532538,-30.901698 L 95.105651,-30.9017 z "
             sodipodi:cx="0"
             sodipodi:cy="0"
             sodipodi:arg1="-0.31415927"
             sodipodi:r2="52.573109"
             sodipodi:arg2="0" />
        </g>
      </g>
    </g>
    <g
       id="bannerSmall">
      <rect
         y="0"
         x="0"
         height="51"
         width="2619"
         id="background2"
         style="fill:#ffffff" />
      <rect
         y="0.5"
         x="0.5"
         height="40"
         width="130"
         id="rectOrange2"
         style="opacity:1;fill:url(#gradientOrangeSmall);stroke:#ec9521;stroke-width:1" />
      <rect
         y="0.5"
         style="fill:url(#gradientBlueSmall);stroke:#72a6bc;stroke-width:1"
         id="rectBlue2"
         width="2486"
         height="40"
         x="133.5" />
      <rect
         style="fill:#aee66b;stroke:#afcf83;stroke-width:1"
         id="rectGreen2"
         width="2619"
         height="7"
         x="0.5"
         y="43.5" />
      <g
         transform="translate(132,23)"
         id="g2187">
        <g
           transform="scale(0.27,0.27)"
           id="g2189">
          <path
             sodipodi:arg2="0"
             sodipodi:r2="52.573109"
             sodipodi:arg1="-0.31415927"
             sodipodi:cy="0"
             sodipodi:cx="0"
             d="M 95.105651,-30.9017 L 52.573109,0 L 95.105652,30.901699 L 42.532538,30.901698 L 58.778526,80.901699 L 16.245984,49.999998 L 4.6410207e-07,100 L -16.245984,49.999998 L -58.778525,80.9017 L -42.532538,30.901698 L -95.105651,30.9017 L -52.573109,6.4381363e-15 L -95.105652,-30.901699 L -42.532538,-30.901698 L -58.778526,-80.901699 L -16.245984,-49.999998 L -4.6410211e-07,-100 L 16.245984,-49.999998 L 58.778525,-80.9017 L 42.532538,-30.901698 L 95.105651,-30.9017 z "
             inkscape:randomized="0"
             inkscape:rounded="0"
             inkscape:flatsided="false"
             sodipodi:r1="100"
             sodipodi:sides="10"
             id="path2191"
             style="opacity:1;fill:#ffffff;fill-opacity:0.41530056;stroke:none;stroke-width:1;stroke-linecap:round;stroke-linejoin:miter;stroke-miterlimit:4;stroke-dasharray:none;stroke-opacity:1"
             sodipodi:type="star" />
        </g>
      </g>
    </g>
  </defs>
  <g
     inkscape:label="Layer 1"
     inkscape:groupmode="layer"
     id="layer1">
    <use
       x="0"
       clip-path="url(#bannerStarClipperBig)"
       width="1"
       height="1"
       y="0"
       id="bannerBigStar"
       xlink:href="#bannerBig" />
    <use
       xlink:href="#bannerBig"
       id="bannerBigBackground"
       y="0"
       height="1"
       width="1"
       clip-path="url(#bannerBackgroundClipperBig)"
       x="0" />
    <use
       xlink:href="#bannerSmall"
       id="bannerSmallStar"
       y="0"
       width="1"
       x="0"
       height="1"
       clip-path="url(#bannerStartClipperSmall)"
       transform="translate(0,300)"
       inkscape:export-xdpi="90"
       inkscape:export-ydpi="90" />
    <use
       transform="translate(0,371.99219)"
       clip-path="url(#bannerBackgroundClipperSmall)"
       height="1"
       x="0"
       width="1"
       y="0"
       id="bannerSmallBackground"
       xlink:href="#bannerSmall"
       inkscape:export-xdpi="90"
       inkscape:export-ydpi="90" />
    <path
       d="M 57.576124,308.03238 L 57.576124,306.25787 C 57.576124,306.25787 57.983762,306.2074 58.209904,306.25787 C 58.368726,306.29336 58.490227,306.57557 58.649166,306.64582 C 58.80671,306.71544 59.143772,306.60837 59.387006,306.64582 C 59.513273,306.66526 59.730811,306.78621 59.835802,306.98192 C 59.879402,307.06355 59.884635,307.08652 59.886727,307.21223 L 59.979045,312.54566 C 59.981254,312.67135 59.985323,312.69867 60.021831,312.81909 C 60.151587,313.24613 60.297853,313.56755 60.485742,313.88101 C 60.922331,314.61004 62.890058,317.03008 63.143058,317.50824 C 63.504769,318.19205 63.922638,319.77176 64.559092,320.28208 C 64.706055,320.39991 66.266494,321.06987 67.127346,321.44788 C 67.242568,321.49847 67.269193,321.50468 67.394763,321.50964 L 70.032313,321.61485 C 70.157767,321.61992 70.185439,321.61775 70.308916,321.59344 C 70.774106,321.50177 71.569847,321.36025 71.697277,321.28422 C 71.869471,321.18138 72.43628,320.23047 72.88182,319.65961 C 73.387821,319.01138 74.495045,318.29892 75.227537,317.99322 C 75.551228,317.858 77.056091,317.45402 77.322345,317.43065 C 77.408035,317.4232 77.484656,317.4205 77.570695,317.43065 C 78.030653,317.48475 79.227869,318.12988 79.593533,318.44148 C 80.1922,318.9517 81.15746,320.18402 81.354187,320.27557 C 81.849141,320.50585 82.749176,319.94153 83.510153,319.44796 C 84.532501,318.78503 88.284949,315.79642 89.426241,315.04485 C 90.21175,314.52759 91.468729,313.82691 92.498751,313.23299 C 92.607694,313.17031 92.630134,313.1644 92.723382,313.17496 C 93.214965,313.23011 94.519032,312.30513 94.779938,312.13526 C 95.9103,311.3988 98.89747,308.9891 99.47393,308.41101 C 99.75193,308.13221 100.83636,306.90113 101.4005,306.801 C 101.57443,306.77017 101.79151,306.92741 101.85987,307.15015 C 101.97684,307.53106 101.88906,307.79528 102.08636,307.73205 C 102.17473,307.70382 102.74747,307.0228 103.12069,306.58767 C 103.26556,306.41884 103.83144,305.98766 103.96096,305.94753 C 104.43836,305.79969 104.6002,306.04187 104.4994,306.47296 C 104.45871,306.64737 103.44019,308.54613 103.17871,308.9347 C 102.46156,310.00148 101.49107,311.40449 101.49107,311.40449 C 101.49107,311.40449 102.51307,311.66695 102.90734,311.88305 C 103.23359,312.06203 103.30718,312.33048 103.0893,312.6516 C 103.01965,312.75422 102.94722,312.84226 102.84909,312.91116 C 102.742,312.98626 101.91684,313.15768 101.39433,313.27965 C 100.73486,313.43359 100.11247,313.81419 99.45451,313.97796 C 98.86712,314.12412 97.20704,314.15579 96.73895,314.2883 C 96.250618,314.42661 95.569285,314.82036 95.128976,315.12243 C 94.873418,315.29778 92.4212,317.59089 91.540466,318.47809 C 91.192824,318.82839 85.671002,323.42929 85.258714,323.71213 C 83.956972,324.60553 82.58919,325.44442 81.244778,326.29594 C 81.138625,326.36317 81.122929,326.376 81.087699,326.42401 C 80.992127,326.55434 80.98829,326.75245 81.007939,326.88406 C 81.066073,327.27468 81.31512,328.07726 81.31512,328.07726 C 81.31512,328.07726 79.590162,329.76074 79.320303,330.15519 C 78.874529,330.80704 78.794188,331.441 78.150177,331.62938 C 78.034257,331.66342 77.931825,331.66176 77.813696,331.62938 C 77.461635,331.53317 76.888199,331.15123 76.534045,331.08627 C 76.358247,331.05398 76.193146,331.06961 76.02258,331.07881 C 75.896894,331.08553 75.873873,331.09691 75.792834,331.19302 C 73.479789,333.93118 72.595451,334.98028 69.815589,336.3623 C 69.243548,336.64678 68.654881,336.90851 68.089351,337.09938 C 67.689387,337.23438 64.874877,337.84879 64.129015,337.96403 C 63.715448,338.02797 63.326646,338.08445 62.933542,338.12097 C 62.514743,338.15997 60.557364,338.12459 60.071362,338.06925 C 59.680351,338.02476 57.257665,337.45247 57.032918,337.3516 C 56.600981,337.15763 55.957202,336.88234 55.757337,336.85441 C 55.56968,336.82823 54.479198,336.94803 54.354093,337.00867 C 54.318282,337.02595 54.287936,337.04425 54.252939,337.06059 C 54.166203,337.10135 51.612715,336.926 51.427034,336.86662 C 50.847669,336.68102 50.469796,336.43243 49.9724,336.22657 C 49.652196,336.09395 49.282463,335.97911 48.887034,335.89676 C 48.178726,335.74945 47.387752,335.70642 46.691071,335.56127 C 44.790082,335.16505 44.762991,334.66714 43.000827,332.53241 C 42.920718,332.43548 42.898975,332.41954 42.782009,332.37288 C 41.508405,331.86432 39.494868,331.07809 38.974217,330.8147 C 38.736914,330.69469 34.878661,327.79671 34.687516,327.59476 C 34.125009,327.00127 33.337755,326.14717 33.01918,325.88781 C 32.553989,325.50908 30.901466,324.64732 29.838075,323.92876 C 29.613444,323.77689 27.517821,321.7574 27.34772,321.52878 C 26.7358,320.70664 26.617322,320.45836 25.919944,319.93294 C 24.993052,319.23464 23.635966,318.49516 22.855107,317.87683 C 22.213422,317.36847 19.233926,314.28458 18.781758,313.9586 C 17.361423,312.93474 15.297541,312.38356 13.35051,311.88305 C 12.903109,311.76802 9.361339,311.23038 9.006371,311.22354 C 8.391544,311.21176 7.686492,311.22354 7.686492,311.22354 L 7.686492,311.24941 C 7.686492,311.2611 7.672888,311.26524 7.54976,311.291 C 7.006089,311.40501 5.5557559,311.80484 5.203695,311.55335 C 4.9730184,311.38845 4.5316633,310.78708 4.5055029,310.70681 C 4.4074886,310.40732 4.5399184,310.08683 4.7007176,309.88012 C 4.8343101,309.70829 6.4047482,308.44629 7.267925,307.74271 C 7.365358,307.66325 7.389658,307.65106 7.51174,307.62064 C 8.465955,307.38249 11.509747,306.73116 12.671734,306.21907 C 13.110415,306.02573 15.271148,304.46329 16.492897,303.71689 C 16.65265,303.61923 17.988575,303.20988 18.07566,303.23191 C 18.215066,303.26719 19.135796,303.81609 19.247297,304.30501 C 19.283922,304.46589 19.235903,304.63286 19.247297,304.81007 C 19.272062,305.19449 19.692838,305.9381 19.867938,306.19972 C 21.753115,309.01518 26.894273,310.75874 29.624606,312.15461 C 29.969574,312.33089 30.293614,312.50718 30.61405,312.71719 C 30.885537,312.89512 32.616309,314.42569 32.961045,314.79263 C 34.215349,316.12799 35.239326,317.4529 36.607689,318.20654 C 36.946263,318.39296 38.641457,319.21747 38.970032,319.18725 C 39.037584,319.18104 39.096067,319.16169 39.164665,319.16553 C 39.347555,319.17588 39.602532,319.35215 39.844138,319.42198 C 40.024703,319.47423 40.197827,319.46689 40.374322,319.47568 C 41.670367,319.54023 43.122327,320.45102 44.308382,320.98039 C 45.969974,321.72182 46.114263,321.54751 47.623544,321.1758 C 47.893985,321.10918 49.634524,320.9809 50.012047,320.99972 C 51.122644,321.05528 51.982216,321.21967 52.804467,321.81442 C 53.709966,322.46947 56.115676,324.68664 56.282638,324.72399 C 56.400999,324.75036 57.017338,324.64175 57.162557,324.5688 C 57.291383,324.50416 57.427068,324.42346 57.595541,324.33605 C 58.264201,323.98896 61.547273,322.78355 61.547273,322.78355 C 61.547273,322.78355 60.600732,321.49475 60.078338,320.72817 C 59.756507,320.2558 59.589429,319.96656 59.457697,319.64193 C 59.124936,318.823 58.406165,315.9365 58.158048,315.394 C 57.607052,314.1891 56.623304,312.63743 56.567379,312.36182 C 56.526336,312.15948 56.537847,311.74111 56.595051,311.35482 C 56.688647,310.72222 56.752246,310.41704 56.618072,310.05361 C 56.183577,308.87717 55.160298,307.93451 55.403648,307.25338 C 55.542356,306.86462 56.007547,306.99744 56.528662,307.46049 C 56.822356,307.72152 57.286732,308.38473 57.472762,308.27519 C 57.497178,308.2609 57.525315,308.23586 57.545662,308.21031 C 57.572985,308.17586 57.576124,308.15807 57.576124,308.03238 z M 18.240528,312.07527 C 18.543873,312.24206 18.894422,312.37132 19.146027,312.61228 C 19.108937,312.69003 19.099403,312.65879 19.001505,312.60638 C 18.840822,312.51722 18.474461,312.33513 18.23332,312.21855 C 18.031129,312.12068 18.078218,312.13351 17.871492,312.04661 C 17.425486,311.85864 16.307449,311.48601 15.588212,311.31552 C 14.974664,311.17006 13.285864,311.13107 13.078906,311.02959 C 13.000309,310.9911 12.927757,310.94227 12.836138,310.89747 C 12.571046,310.76763 12.172826,310.71598 11.804139,310.61532 C 11.682871,310.58221 11.538349,310.58872 11.412663,310.58489 L 9.083108,310.44766 C 9.083108,310.44766 9.076132,310.36915 9.083108,310.31814 C 9.115664,310.07835 10.043253,310.17444 10.091737,310.17611 C 10.403686,310.18655 16.183739,311.25727 16.583703,311.37873 C 16.812519,311.44825 17.44874,311.63953 17.815218,311.84043 C 17.970902,311.9113 18.028222,311.96395 18.240528,312.07527 z M 5.9020033,310.37008 L 5.9795544,310.37008 L 5.9795544,310.44766 C 5.9795544,310.44766 6.2942931,310.4428 6.4521857,310.40277 C 6.586941,310.36852 6.733439,310.27242 6.677863,310.16296 C 6.640541,310.0892 6.4016089,309.92761 6.3419632,309.90454 C 6.2751088,309.87868 6.2222067,309.8855 6.1603519,309.90454 C 6.0652443,309.93381 5.915723,310.0834 5.9020033,310.16296 C 5.8866559,310.25194 5.9020033,310.37008 5.9020033,310.37008 z M 13.804305,308.48084 L 17.344912,309.85405 C 17.462111,309.89948 17.483272,309.90548 17.557335,309.91397 C 17.776617,309.939 18.045314,309.80254 18.141584,309.71058 C 18.494924,309.37363 18.208322,309.12721 18.316219,308.5724 C 18.338543,308.45716 18.544105,308.15651 18.665373,308.06187 C 18.842799,307.92314 19.104636,307.77551 19.221718,307.80965 C 19.385889,307.85764 19.594591,308.21001 19.635169,308.40397 C 19.699349,308.71091 19.532969,309.12204 19.584475,309.48349 C 19.599823,309.59108 20.153261,310.4277 20.345801,310.6343 C 20.527296,310.8292 20.749834,311.0421 20.912145,311.1199 C 21.217466,311.26617 21.648938,311.28127 22.067156,311.41918 C 23.365177,311.84715 24.011978,312.75071 25.124668,313.6288 C 25.742867,314.11689 28.40274,315.72203 28.40274,315.72203 C 28.40274,315.72203 28.020101,314.33526 28.053703,314.11999 C 28.082072,313.93677 28.439132,313.98415 28.713061,314.15258 C 28.857001,314.24103 28.967224,314.34685 29.081632,314.48228 C 29.285683,314.72395 30.090958,316.09302 30.580797,316.90749 C 30.645559,317.01519 30.663813,317.03587 30.762641,317.11357 L 32.82536,318.73651 C 32.82536,318.73651 32.64433,319.42934 32.670142,319.73502 C 32.687001,319.93552 33.098707,320.30558 33.316478,320.37902 C 33.549131,320.45764 33.993044,320.33547 34.325921,320.37902 C 34.725652,320.43137 36.190053,321.30243 36.510838,321.56229 C 36.961262,321.92728 37.096482,322.12807 36.769884,322.24116 C 36.635477,322.2877 35.53302,322.2877 35.1398,322.24116 C 34.123032,322.12084 32.706766,321.90358 32.706766,321.90358 L 34.883893,323.64436 C 34.883893,323.64436 34.968653,323.26935 35.036554,323.11408 C 35.17468,322.79802 35.605223,322.6742 35.87764,322.70668 C 36.626176,322.79606 37.876759,323.54775 38.372877,323.88996 C 39.530097,324.68778 43.113026,327.5656 43.113026,327.5656 L 41.789309,325.52759 C 41.789309,325.52759 49.728468,328.91999 50.050067,329.14655 C 50.686404,329.59522 51.411222,330.11816 51.549698,330.15519 C 51.94129,330.25999 52.248006,330.07213 52.377529,329.40569 C 52.521353,328.66684 51.657362,327.43287 51.052069,326.40922 C 50.988237,326.30099 50.98161,326.27503 50.986609,326.14944 L 51.052999,324.48801 C 51.058115,324.36242 51.054161,324.33522 51.0137,324.21603 C 50.84139,323.70944 50.758607,323.51712 50.380851,323.42691 C 50.213424,323.38688 48.778671,323.20324 48.485094,323.2498 C 48.263137,323.28498 48.041878,323.40188 47.826316,323.48257 C 47.655983,323.54641 47.173237,323.5946 47.049527,323.56016 C 46.895122,323.51712 46.540736,323.28156 46.286922,323.07528 C 45.908701,322.7675 45.510481,322.45664 45.084357,322.18301 C 44.849379,322.03207 42.138929,320.87497 41.767451,320.76696 C 39.7724,320.18711 37.666895,319.90604 36.14215,318.94362 C 35.846828,318.75721 34.5316,317.65669 34.241277,317.35306 C 33.693885,316.78065 33.220789,316.17671 32.670142,315.58796 C 32.347497,315.24296 30.811823,313.89592 30.458832,313.64824 C 28.748872,312.4482 26.398854,311.60218 24.096506,310.44766 C 22.558739,309.67653 21.047016,308.88275 20.197792,307.69326 C 19.793061,307.12656 19.448906,306.42256 19.053245,305.85058 C 18.740948,305.39881 18.34517,304.92986 18.021362,304.86128 C 17.916604,304.83914 17.235388,305.00683 16.99727,305.1135 C 16.70625,305.24363 16.40744,305.38495 16.124326,305.55956 C 15.442179,305.98021 14.593071,306.72878 14.048818,307.01442 C 13.334813,307.38902 12.249796,307.77613 11.992727,307.98427 C 11.721588,308.2038 11.80879,308.41081 12.13469,308.50794 C 12.269213,308.54808 13.068559,308.47463 13.534795,308.4406 C 13.660132,308.43139 13.687107,308.43543 13.804305,308.48084 z M 26.474428,318.44664 C 26.486752,318.45492 26.516168,318.46081 26.532562,318.45804 C 26.551165,318.45471 26.5507,318.42689 26.532562,318.39596 C 26.408853,318.18605 25.496494,317.58696 25.410107,317.63134 C 25.235355,317.72144 26.264563,318.30429 26.474428,318.44664 z M 27.775356,319.49286 C 28.390416,320.08128 31.964857,324.01462 31.370377,323.44202 C 31.454439,323.53543 31.52327,323.58985 31.602448,323.65968 C 31.907188,323.92762 32.15577,323.79499 32.714207,324.00634 C 33.036852,324.12841 33.447745,324.37308 33.531575,324.34681 C 33.560874,324.3376 33.559944,324.29672 33.531575,324.25369 C 33.441002,324.11641 32.607589,323.79851 32.1324,323.54082 C 31.666163,323.28798 31.270618,322.83744 30.918325,322.43511 C 30.499875,321.95748 29.996316,321.31888 29.63007,320.90072 C 29.421485,320.66258 29.229525,320.51041 28.912461,320.22384 C 28.591909,319.93428 27.409343,318.99017 27.391554,319.03477 C 27.385043,319.051 27.385624,319.07614 27.388066,319.09684 C 27.391205,319.12477 27.668273,319.37523 27.775356,319.49286 z M 10.837251,308.34015 C 10.736446,308.21331 10.65936,308.28294 10.471354,308.39426 C 10.440543,308.41257 10.41008,308.43108 10.375781,308.44101 C 10.329622,308.45446 10.324507,308.46284 10.324507,308.52492 L 10.324507,308.66313 L 10.828996,308.66313 L 10.828996,308.58553 L 10.867713,308.58553 C 10.867713,308.58553 10.867713,308.44732 10.867713,308.44732 C 10.867713,308.38525 10.86469,308.37461 10.837251,308.34015 z M 9.005557,308.80516 C 8.953353,308.94161 9.036601,309.21586 9.120547,309.26677 C 9.259604,309.35118 9.671078,309.10538 9.703866,309.0255 C 9.731654,308.95723 9.659567,308.82719 9.594922,308.66787 C 9.510279,308.45911 9.442378,308.39549 9.238327,308.5274 C 9.140894,308.5904 9.037996,308.72054 9.005557,308.80516 z M 51.332741,333.10356 L 51.291465,333.10356 C 51.291465,333.10356 51.285536,333.18603 51.291465,333.21994 C 51.294488,333.23857 51.316812,333.23857 51.353553,333.21994 C 51.463426,333.16419 51.746424,333.05835 51.935593,332.96174 C 52.047675,332.90441 52.073603,332.90194 52.194406,332.93681 C 53.176991,333.22047 54.903926,333.704 55.132045,333.82132 C 55.424228,333.97163 55.604444,334.11914 55.772103,334.30619 C 55.851514,334.39464 55.961155,334.71617 55.946738,334.81828 C 55.901626,335.13887 55.655021,335.66399 55.655021,335.66399 C 55.655021,335.66399 55.788148,335.67081 55.895464,335.66399 C 56.017313,335.65634 56.302171,335.5174 56.412161,335.41188 C 57.604726,334.26885 57.924348,334.02066 58.429535,332.59923 C 58.723113,331.77359 58.82601,331.42879 58.817523,330.54241 C 58.814616,330.24417 58.789153,329.86667 58.739972,329.84485 C 58.728112,329.83957 58.714276,329.84669 58.701138,329.84485 C 58.650677,329.83792 58.526503,329.26644 58.410118,328.83618 C 58.359657,328.64935 57.809359,327.6588 57.634259,327.43959 C 55.888139,325.25283 55.310052,324.81885 52.765517,322.88131 C 52.60216,322.75675 50.463053,321.79567 50.330507,321.7872 C 50.096458,321.7722 49.840784,321.77562 49.840784,321.77562 C 49.840784,321.77562 50.376316,322.05328 50.725936,322.29628 C 51.402153,322.76647 52.338347,324.31949 52.668549,325.11193 C 53.308607,326.64777 53.556375,329.12276 52.901318,330.8535 C 52.582627,331.69548 52.155805,332.30864 51.45273,333.00518 C 51.363436,333.09375 51.35146,333.10356 51.332741,333.10356 z M 45.704998,332.52166 C 45.779759,332.54647 45.890214,332.505 46.020086,332.50944 C 46.284248,332.51854 47.613313,333.42923 47.450769,333.11908 C 47.404146,333.03011 47.134519,332.86438 46.868846,332.71562 C 45.540827,331.97212 42.255778,330.52256 40.545469,329.59273 C 40.152598,329.3792 39.572535,328.9804 39.303955,328.73926 C 39.154317,328.60476 38.294279,327.73226 38.178941,327.86633 C 38.12197,327.93254 38.305674,328.22013 38.431127,328.37065 C 38.773073,328.78094 39.716708,329.40962 40.196199,329.7479 C 42.521336,331.38813 43.130931,331.67003 45.704998,332.52166 z M 56.794219,308.80641 L 59.380262,313.14279 C 59.380262,313.14279 59.246669,311.62276 59.244228,310.60285 C 59.244228,310.6015 59.516412,308.28552 59.43828,308.05483 C 59.37317,307.86283 59.248414,307.64972 59.248414,307.64972 C 59.248414,307.64972 59.150515,307.71447 59.093428,307.74892 C 59.02669,307.78896 59.015063,307.78802 58.998436,307.77085 C 58.93507,307.70568 58.650212,307.3677 58.559058,307.34411 C 58.431628,307.31122 58.274316,307.34411 58.274316,307.34411 C 58.274316,307.34411 58.285478,307.5774 58.274316,307.77169 C 58.259318,308.03817 58.019572,308.88771 57.867028,309.16744 C 57.795755,309.29831 57.695067,309.45411 57.695067,309.45411 C 57.695067,309.45411 56.977458,308.7344 56.780732,308.62433 C 56.749688,308.60684 56.728643,308.60684 56.722598,308.62433 C 56.718877,308.63508 56.718644,308.65195 56.720156,308.66571 C 56.722365,308.68432 56.729806,308.69839 56.794219,308.80641 z M 63.798928,321.08849 C 63.798928,321.08849 63.7001,320.41274 63.58918,319.91348 C 63.35362,318.85321 62.175821,316.63334 61.339153,315.9759 C 61.066271,315.76146 60.661075,315.48152 60.661075,315.48152 C 60.661075,315.48152 60.723628,316.38299 60.83478,317.01716 C 61.00802,318.00501 62.032462,319.94618 62.890872,320.5342 C 63.238747,320.77256 63.798928,321.08849 63.798928,321.08849 z M 59.867659,324.41093 L 60.908611,324.43608 C 61.034297,324.43918 61.062085,324.43763 61.186841,324.42056 C 61.356128,324.39739 61.519137,324.3735 61.688307,324.3167 C 61.988163,324.21593 63.175381,323.29945 63.783232,322.95889 C 63.97368,322.85213 64.366086,322.73245 64.61025,322.70668 C 65.606554,322.60147 66.919341,322.78644 68.068888,323.02717 C 68.192016,323.05293 68.205852,323.05717 68.205852,323.06875 L 68.205852,323.09462 L 68.490477,323.09462 L 70.533314,322.29319 L 70.533314,322.16356 C 70.533314,322.16356 70.314264,322.17184 70.183462,322.16356 C 70.104865,322.15859 70.058008,322.14772 70.000223,322.123 C 69.922207,322.08969 69.899651,322.08689 69.774081,322.09466 C 66.146621,322.32049 64.027977,322.31139 61.125684,323.75412 C 60.58864,324.02114 59.867659,324.41093 59.867659,324.41093 z M 58.708347,325.73399 C 58.708347,325.73399 59.379216,326.09058 59.884169,326.24866 C 60.095429,326.31487 60.825828,326.34963 61.320317,326.38056 C 61.768532,326.40859 62.489862,326.56521 63.071669,326.67477 C 63.195263,326.69795 63.220958,326.69349 63.329204,326.62945 C 64.490144,325.94306 66.364043,324.93865 66.731568,323.96135 C 66.834465,323.68772 66.743543,323.60826 66.421247,323.50202 C 66.169991,323.41915 65.797118,323.31291 65.480287,323.23522 C 65.358088,323.20521 65.333672,323.21049 65.234495,323.28766 C 64.557231,323.81455 63.366642,324.75896 63.181892,324.84037 C 63.019348,324.91195 60.71607,325.22356 59.709767,325.36415 C 59.538387,325.38804 59.379216,325.41825 59.108426,325.53867 C 58.932047,325.61718 58.708347,325.73399 58.708347,325.73399 z M 58.265247,326.5435 C 58.265247,326.5435 58.92914,327.9403 59.185977,328.64221 C 59.290968,328.92867 59.327941,329.09947 59.360613,329.27534 C 59.407236,329.52579 59.407236,330.60904 59.360613,330.86674 C 59.241786,331.52469 58.274316,334.42258 58.274316,334.42258 C 58.274316,334.42258 58.340589,334.42516 58.398491,334.42258 C 58.765086,334.40665 59.17342,333.93894 59.43828,333.6467 C 59.824059,333.22087 60.389821,332.51938 60.389821,332.51938 C 60.389821,332.51938 60.490277,332.62779 60.582594,332.75442 C 60.839199,333.10605 61.163006,333.95974 61.163006,333.95974 C 61.163006,333.95974 61.946539,333.55802 62.21198,333.29754 C 62.356851,333.1556 62.691239,331.99518 62.968423,331.49365 C 63.054578,331.33785 63.176078,331.20544 63.317693,331.06691 C 63.50163,330.8867 64.929523,329.92449 65.102182,329.86429 C 65.609926,329.68717 66.157318,329.67084 66.518215,329.49569 C 66.876555,329.32189 68.541054,327.85826 68.787659,327.7694 C 69.308891,327.58153 70.031034,327.65477 70.222993,327.25886 C 70.38449,326.92616 70.151372,326.41407 69.893256,326.04299 C 69.789661,325.89393 69.68188,325.76389 69.505268,325.57747 C 69.173089,325.22656 68.59756,324.67619 68.59756,324.67619 C 68.59756,324.67619 68.398974,324.80747 68.225152,324.99554 C 68.015869,325.22221 67.472082,326.41315 67.472082,326.41315 C 67.472082,326.41315 66.535307,326.46507 66.058955,326.58611 C 65.924548,326.62026 65.552257,326.87029 65.451568,326.99392 C 65.129505,327.38973 64.707566,328.01394 64.489214,328.02151 C 64.398757,328.02462 64.237726,327.93243 64.069601,327.78957 C 63.817299,327.57491 63.714634,327.46287 63.576158,327.51717 C 63.110735,327.69946 62.870874,328.51497 62.580668,328.97202 C 62.351619,329.33224 62.01165,329.44915 61.693307,329.19775 C 61.436586,328.99498 61.1501,328.57962 60.873614,328.39012 C 60.638519,328.22892 59.84301,328.1293 59.593498,327.96337 C 59.308757,327.77405 58.265247,326.5435 58.265247,326.5435 z M 75.188703,321.93079 C 75.188703,321.93079 76.034091,321.82838 76.646361,321.67423 C 77.387339,321.48771 77.786954,321.22535 78.188313,321.15491 C 78.464567,321.10639 78.741634,321.1488 79.224032,321.07731 C 79.833744,320.987 80.771449,320.71492 80.771449,320.71492 C 80.771449,320.71492 80.611347,320.54619 80.464849,320.39846 C 80.330675,320.26325 78.98231,319.45085 78.887319,319.44796 C 78.631877,319.44019 78.003678,319.57913 77.37362,319.68073 C 76.496142,319.82225 76.274301,319.81469 75.906428,320.26263 C 75.648893,320.5762 75.228118,321.07949 75.188703,321.41332 C 75.162426,321.63668 75.188703,321.93079 75.188703,321.93079 z M 70.610981,324.0769 C 70.595401,324.17279 70.583891,324.33501 70.610981,324.46567 C 70.674813,324.77334 71.188603,325.11833 71.5545,325.18953 C 71.984693,325.27332 72.698814,324.88661 73.05506,324.5688 C 73.489323,324.18139 73.562688,323.83181 73.481766,323.35304 C 73.460954,323.22901 73.370497,323.08045 73.300968,323.05584 C 73.219348,323.02697 71.58066,323.40633 71.289873,323.52136 C 71.109308,323.59285 70.666092,323.73851 70.610981,324.0769 z M 80.309631,327.44269 L 80.309631,326.78009 C 80.309631,326.78009 80.214407,326.76778 80.141274,326.78009 C 80.060816,326.79364 79.936409,326.92781 79.863509,327.05165 C 79.588999,327.51698 78.956266,328.31841 79.145667,328.73305 C 79.255425,328.97305 79.472614,328.8397 79.688874,328.60342 C 80.036632,328.22364 80.153947,328.1202 80.270565,327.71684 C 80.305678,327.59579 80.309631,327.56839 80.309631,327.44269 z M 77.477564,329.1272 C 77.691381,328.94274 78.257725,328.44276 78.292257,328.3451 C 78.322022,328.2609 78.250051,327.92178 78.19494,327.88609 C 78.030885,327.77994 77.402105,328.11729 77.12841,328.31252 C 76.836925,328.52025 76.704611,328.70046 76.818089,329.00461 C 76.899709,329.22331 77.023884,329.28795 77.291185,329.20912 C 77.359319,329.18895 77.438963,329.16041 77.477564,329.1272 z M 66.382414,334.83379 L 66.408225,334.92184 C 66.419968,334.96134 66.435199,334.96611 66.560886,334.96983 C 67.589862,335.00004 68.11086,334.96353 69.007988,334.73293 C 69.47155,334.61386 71.257201,333.96398 71.61961,333.78252 C 72.937978,333.12259 73.920912,332.12967 74.257625,330.56952 C 74.280995,330.461 74.292738,330.37927 74.257625,330.34917 C 74.214722,330.31223 74.101128,330.3533 73.986138,330.40741 C 73.60687,330.58545 72.115146,331.86184 71.018386,332.56045 C 70.42158,332.94063 66.382414,334.83379 66.382414,334.83379 z M 97.92605,312.7595 C 97.95151,312.84112 98.27508,313.10916 98.41333,313.16327 C 98.53227,313.20983 98.73016,313.20848 98.90526,313.16327 C 99.4973,313.01037 101.36806,312.40115 102.20426,312.39824 C 102.43749,312.39752 102.67108,312.42483 102.69573,312.37714 C 102.71107,312.34713 102.49435,312.11944 102.34483,312.01889 C 102.15089,311.88844 101.21923,311.79316 100.9481,311.66353 C 100.9017,311.64118 100.9017,311.15434 100.9481,311.05523 C 100.98693,310.97288 101.54734,310.02176 101.4913,309.9302 C 101.46119,309.88096 101.32992,309.85458 101.20737,309.82695 C 100.79799,309.73467 99.78064,309.6217 99.70367,309.65998 C 99.62136,309.70074 98.44751,311.50081 98.32961,311.76667 C 98.32392,311.77939 97.88849,312.63959 97.92605,312.7595 z M 83.969181,322.92909 L 83.995108,323.01704 C 83.995108,323.01704 84.445997,322.911 84.670861,322.88089 C 84.760155,322.86889 85.021294,322.85173 85.042455,322.95496 C 85.047919,322.98134 85.042455,323.01704 85.042455,323.01704 L 85.172094,323.01704 L 85.424164,322.23297 C 85.424164,322.23297 84.958625,322.32132 84.6933,322.41577 C 84.67307,322.42302 84.19509,322.66686 84.052661,322.79709 C 83.965925,322.87634 83.957554,322.88958 83.969181,322.92909 z "
       style="fill:#d28012;fill-opacity:1;fill-rule:evenodd;stroke:none;stroke-opacity:1"
       id="mecanoo" />
  </g>
</svg>
